<svg xmlns="http://www.w3.org/2000/svg" viewBox="0 0 45 45"><defs><style>.cls-1{fill:none;}</style></defs><title>est1</title><g id="Capa_2" data-name="Capa 2"><g id="Capa_1-2" data-name="Capa 1"><path class="cls-1" d="M22.5,43.92A21.42,21.42,0,1,0,1.08,22.5,21.45,21.45,0,0,0,22.5,43.92Z"/><path class="cls-2" d="M22.5,45A22.5,22.5,0,1,0,0,22.5,22.52,22.52,0,0,0,22.5,45Zm0-43.92A21.42,21.42,0,1,1,1.08,22.5,21.45,21.45,0,0,1,22.5,1.08Z"/><path class="cls-2" d="M18.21,37.92a.56.56,0,0,0,.4-.16L33,23.39a5.78,5.78,0,0,0,1.62-3.14l1.3-7.71a2.4,2.4,0,0,0-2.76-2.76l-7.71,1.3a5.78,5.78,0,0,0-3.14,1.62L7.91,27.06a.56.56,0,0,0,0,.79l9.9,9.9A.56.56,0,0,0,18.21,37.92ZM29.59,13.72a1.66,1.66,0,1,1,0,2.35A1.66,1.66,0,0,1,29.59,13.72ZM15.13,31.25a.56.56,0,0,1-.79,0L11,27.91a.56.56,0,0,1,.79-.79l3.34,3.34A.56.56,0,0,1,15.13,31.25Zm1.52,1.52a.56.56,0,0,1-.79,0l-.25-.25a.56.56,0,0,1,.79-.79l.25.25A.56.56,0,0,1,16.65,32.77ZM17.77,24a.67.67,0,1,1,1-1L22,26.34,23.33,25,20,21.74a.69.69,0,0,1,0-1l2.28-2.28a.69.69,0,0,1,1,0l1.4,1.4,1.15-1.15a.67.67,0,0,1,1,1l-1.15,1.15,1.4,1.4a.67.67,0,1,1-1,1L22.8,19.94l-1.32,1.32,3.28,3.28a.69.69,0,0,1,0,1l-2.28,2.28a.69.69,0,0,1-1,0l-1.4-1.4L19,27.52a.67.67,0,0,1-1-1l1.15-1.15Z"/></g></g></svg>